<svg xmlns="http://www.w3.org/2000/svg" xmlns:xlink="http://www.w3.org/1999/xlink" viewBox="0 0 263 263"><defs><style>.cls-1{fill:none;}.cls-2{fill:#fff;}.cls-3{clip-path:url(#clip-path);}.cls-4{fill:#fdfdfc;}.cls-5{fill:#90b887;}.cls-6{fill:#8ebb84;}</style><clipPath id="clip-path"><circle class="cls-1" cx="131.5" cy="131.5" r="115.5"/></clipPath></defs><g id="Layer_2" data-name="Layer 2"><g id="Layer_1-2" data-name="Layer 1"><circle class="cls-2" cx="131.5" cy="131.5" r="131.5"/><g class="cls-3"><path class="cls-4" d="M252.41,131c0,39.07-.08,78.15.11,117.22,0,4-.81,4.84-4.83,4.83Q131.83,252.82,16,253c-4,0-4.84-.81-4.83-4.83q.22-117.22,0-234.45c0-4,.81-4.83,4.83-4.82q115.86.22,231.73,0c4,0,4.85.8,4.83,4.82C252.33,52.84,252.41,91.91,252.41,131Zm-5.52.93c0-61.11-47.77-116.54-115.51-116.69C67.4,15.08,16.3,66,15.77,131.83c-.52,63.95,52.42,116.73,115.83,116.58C194.65,248.26,246.85,195.52,246.89,131.92Z"/><path class="cls-5" d="M246.89,131.92c0,63.6-52.24,116.34-115.29,116.49-63.41.15-116.35-52.63-115.83-116.58C16.3,66,67.4,15.08,131.38,15.23,199.12,15.38,246.93,70.81,246.89,131.92Zm-221.08-.51c-.1,59.37,46.4,106.46,105.05,107,54.55.48,106.48-42.69,106.14-107.4-.33-63.31-51.18-106.13-105.51-106C72.87,25.17,25.92,72.28,25.81,131.41Z"/><path class="cls-4" d="M25.81,131.41C25.92,72.28,72.87,25.17,131.49,25,185.82,24.85,236.67,67.67,237,131c.34,64.71-51.59,107.88-106.14,107.4C72.21,237.87,25.71,190.78,25.81,131.41Zm111.52-32c.79,3.41-1.75,4.37-3.07,5.93-4.79,5.63-9.56,11.28-14.59,16.68-3.66,3.94-2.06,6.06,1.87,8.21,14.79,8.07,28.64,3.85,36.71-11.22,7.89-14.71,9.4-31.2,13.13-47.06,1-4.2-1.89-5.69-5.71-5-16.39,2.82-32.57,6.66-47.1,15C106,89.17,103,97.88,106.88,112.18c1.89,7,2.74,7.39,8.82,3.06C122.88,110.13,130,104.84,137.33,99.43Zm40.54,74.13a106.5,106.5,0,0,1-21.21,19.17c-3,2.15-9.07,4.07-11.87-1.37-2.24-4.36-5.27-4.69-9.29-4.49-5.38.26-10.78.13-16.16.25-5.57.12-9.63,2-9.9,8.45s3.8,8.38,9.22,9.2c10.11,1.54,20.2-1,30.24,0s17.7-2.57,23.85-10.57c3.82-5,8.46-9.29,12.91-13.72,2-2,4.61-5.28,6.78-5.15,9.88.58,8.5-5.93,8.45-11.92,0-3.14.09-6.28.17-9.43s-1.36-5-4.79-5c-9.4-.06-18.61-.78-25.63,8.07-4.1,5.17-10.18,8.74-15.2,13.21a56.78,56.78,0,0,0-8.4,8.66c-2.22,3-2.66,7,.32,9.9s6.36,1.23,9.11-.89c3.37-2.6,6.41-5.63,9.77-8.26C169.28,177.24,172,174.2,177.87,173.56ZM90.08,128.3c2.45-1.59,4,.26,5.71,1.07,3.95,1.9,6,.15,6.95-3.5,1.85-7.23-1.07-15.92-7.59-19.38-11-5.83-23-7-35.22-5.06-2.45.39-4.08,1-2.94,4.35,3.8,11.15,8.71,21.65,16.69,30.44A14.18,14.18,0,0,0,87,141.07c7-1.13,8.46-5.06,4.12-10.43A10.1,10.1,0,0,1,90.08,128.3Zm19.44,44.88c1.53-.32,4.46-.15,6-2.07,2-2.56-.94-4.47-2-6.44-5.07-9.16-7.25-18.73-4.69-29.08.31-1.28,1.2-2.75-.24-3.63-1.76-1.09-2.8.41-3.81,1.66-7.16,8.85-7.72,27.91-1.1,37A5.46,5.46,0,0,0,109.52,173.18Z"/><path class="cls-6" d="M137.33,99.43c-7.38,5.41-14.45,10.7-21.63,15.81-6.08,4.33-6.93,4-8.82-3.06-3.85-14.3-.92-23,11.69-30.24,14.53-8.34,30.71-12.18,47.1-15,3.82-.66,6.69.83,5.71,5-3.73,15.86-5.24,32.35-13.13,47.06-8.07,15.07-21.92,19.29-36.71,11.22-3.93-2.15-5.53-4.27-1.87-8.21,5-5.4,9.8-11.05,14.59-16.68C135.58,103.8,138.12,102.84,137.33,99.43Z"/><path class="cls-6" d="M177.87,173.56c-5.84.64-8.59,3.68-11.63,6.05-3.36,2.63-6.4,5.66-9.77,8.26-2.75,2.12-6.08,3.87-9.11.89s-2.54-6.85-.32-9.9a56.78,56.78,0,0,1,8.4-8.66c5-4.47,11.1-8,15.2-13.21,7-8.85,16.23-8.13,25.63-8.07,3.43,0,4.86,1.76,4.79,5s-.2,6.29-.17,9.43c.05,6,1.43,12.5-8.45,11.92-2.17-.13-4.74,3.11-6.78,5.15-4.45,4.43-9.09,8.77-12.91,13.72-6.15,8-13.69,11.55-23.85,10.57s-20.13,1.56-30.24,0c-5.42-.82-9.5-2.66-9.22-9.2s4.33-8.33,9.9-8.45c5.38-.12,10.78,0,16.16-.25,4-.2,7.05.13,9.29,4.49,2.8,5.44,8.85,3.52,11.87,1.37A106.5,106.5,0,0,0,177.87,173.56Z"/><path class="cls-6" d="M90.08,128.3a10.1,10.1,0,0,0,1,2.34C95.46,136,94,139.94,87,141.07a14.18,14.18,0,0,1-13.32-4.85c-8-8.79-12.89-19.29-16.69-30.44-1.14-3.35.49-4,2.94-4.35,12.27-2,24.22-.77,35.22,5.06,6.52,3.46,9.44,12.15,7.59,19.38-.94,3.65-3,5.4-6.95,3.5C94.1,128.56,92.53,126.71,90.08,128.3Zm-.44-2.22a9.73,9.73,0,0,0-1.34-.85c-.74-.36-1.36,0-1.25.75a2.49,2.49,0,0,0,1.2,1.36C88.92,127.75,89.39,127.38,89.64,126.08Z"/><path class="cls-6" d="M109.52,173.18a5.46,5.46,0,0,1-5.88-2.58c-6.62-9.07-6.06-28.13,1.1-37,1-1.25,2.05-2.75,3.81-1.66,1.44.88.55,2.35.24,3.63-2.56,10.35-.38,19.92,4.69,29.08,1.09,2,4.07,3.88,2,6.44C114,173,111.05,172.86,109.52,173.18Z"/><path class="cls-4" d="M89.64,126.08c-.25,1.3-.72,1.67-1.39,1.26a2.49,2.49,0,0,1-1.2-1.36c-.11-.7.51-1.11,1.25-.75A9.73,9.73,0,0,1,89.64,126.08Z"/></g></g></g></svg>