<svg xmlns="http://www.w3.org/2000/svg" xmlns:xlink="http://www.w3.org/1999/xlink" viewBox="0 0 263 263"><defs><style>.cls-1{fill:none;}.cls-2{fill:#fff;}.cls-3{clip-path:url(#clip-path);}.cls-4{fill:#fafafa;}.cls-5{fill:#584c69;}.cls-6{fill:#544865;}</style><clipPath id="clip-path"><circle class="cls-1" cx="131.5" cy="131.5" r="115.1"/></clipPath></defs><g id="Layer_2" data-name="Layer 2"><g id="Layer_1-2" data-name="Layer 1"><circle class="cls-2" cx="131.5" cy="131.5" r="131.5"/><g class="cls-3"><path class="cls-4" d="M251.1,130.49c0,39.35,0,78.7.08,118,0,3.66-.27,5-4.67,5q-115.71-.28-231.43,0c-3.82,0-4.45-.87-4.45-4.53q.19-118.39,0-236.79c0-3.46.31-4.64,4.34-4.63q116,.24,232.1,0c3.47,0,4.1.9,4.09,4.18C251.06,51.34,251.1,90.92,251.1,130.49Zm-235-.51c0,64.64,51.6,116.57,115.89,116.55,63,0,114.81-52.4,115-116.28.14-64.08-51.59-116.36-115.34-116.57C68,13.47,16.13,65.72,16.09,130Z"/><path class="cls-5" d="M16.09,130C16.13,65.72,68,13.47,131.6,13.68c63.75.21,115.48,52.49,115.34,116.57-.15,63.88-51.93,116.26-115,116.28C67.69,246.55,16.05,194.62,16.09,130Zm9.21-.4C25,188.83,72,237,130.4,237.33c58.85.34,106.9-47,107.25-105.73C238,71.48,191,22.94,132.13,22.71S25.61,70.17,25.3,129.58Z"/><path class="cls-4" d="M25.3,129.58c.31-59.41,48-107.1,106.83-106.87S238,71.48,237.65,131.6c-.35,58.7-48.4,106.07-107.25,105.73C72,237,25,188.83,25.3,129.58Zm79-26.85c9-1.38.42-7.37,3.48-10.9,5.93,6,12.85,9.2,21.25,7.55,4-.78,9-.36,9.91-6.13s.06-10.11-6.21-13.1c-8.12-3.89-16.85-6-24.91-9.93-8.33-4-9.39-4-14.82,3.81-5.91,8.45-10.87,17.66-17.45,25.52-4.28,5.11-3.91,8.48-.44,13.29,10.25,14.2,20.13,28.66,30.38,42.85a10.94,10.94,0,0,1,2.35,8.07c-1.36,13.15-2.11,26.4-4.91,39.35-1.18,5.47.83,8.25,5.66,9.48,16.73,4.23,33.34,3.38,49.75-1.66,2.42-.74,5.15-1.65,5.21-5.27.22-12.14,1.17-24.3.62-36.39a12,12,0,0,1,3.48-9.78c8.46-9.5,12.88-20.87,14.4-33.41.22-1.84.28-3.8-1.67-4.73-1.72-.83-2.75.61-4,1.66-3.58,3.07-7.48,5.76-10.94,9-3,2.8-5.39,2.56-7.68-.65-9.84-13.8-25-18.2-40.13-22.56C113.18,107.46,108.47,106.67,104.32,102.73Zm69.81-16.37c-1.67-3-5.52-5-8.58-7.89-2.67-2.5-4.28-2.26-6.45.54-6.19,8-12.75,15.68-18.82,23.76-1.86,2.46-5.86,5.3-1.19,9,7.28,5.81,10.7,6.29,14.89,1.42,6.3-7.32,12.4-14.81,18.6-22.21A5.34,5.34,0,0,0,174.13,86.36Zm15.29,19c-.45-3.11-3.35-4.91-5-7.52-3.16-5.09-6-5-9.78-.56-5.56,6.47-11.44,12.67-17.35,18.83-2.65,2.77-3.09,5.06-.23,8,2.6,2.71,4.76,4.41,8.47,1.53,6.56-5.09,13.4-9.82,20.09-14.74C187.46,109.64,189.25,108.21,189.42,105.4Zm-53-50.08a8.93,8.93,0,0,0-.95-2c-3.35-3.94-7.1-8-12.09-9-3.92-.8-4.93,4.42-7.42,6.75a23.35,23.35,0,0,0-2.11,2.61c-7.91,9.89-7.82,9.71,3.44,15.26,4.68,2.3,8.4,3.82,11.81-1.85C131.46,63.08,134.63,59.58,136.39,55.32Zm5.3,31.92c0,.75-1,2.72,1,3.36s2.48-1.34,3.26-2.66c2.16-3.65,4.05-7.45,6.88-10.7C158.14,71.18,158,70,152,64.85c-9.71-8.3-9.89-8.27-16.76,2.32-.48.75-.9,1.55-1.42,2.28-2.58,3.54-2.15,6,2.24,7.67S142.26,81.91,141.69,87.24Zm-26,16.38c7.82,5.8,14,6,17,1.08a3.62,3.62,0,0,0,.68-2.32c-.21-1-1.32-1-2.2-.86C126.25,102.18,121.28,102.87,115.73,103.62Z"/><path class="cls-6" d="M104.32,102.73c4.15,3.94,8.86,4.73,13.35,6,15.15,4.36,30.29,8.76,40.13,22.56,2.29,3.21,4.64,3.45,7.68.65,3.46-3.19,7.36-5.88,10.94-9,1.23-1.05,2.26-2.49,4-1.66,1.95.93,1.89,2.89,1.67,4.73-1.52,12.54-5.94,23.91-14.4,33.41a12,12,0,0,0-3.48,9.78c.55,12.09-.4,24.25-.62,36.39-.06,3.62-2.79,4.53-5.21,5.27-16.41,5-33,5.89-49.75,1.66-4.83-1.23-6.84-4-5.66-9.48,2.8-13,3.55-26.2,4.91-39.35a10.94,10.94,0,0,0-2.35-8.07C95.26,141.5,85.38,127,75.13,112.84c-3.47-4.81-3.84-8.18.44-13.29C82.15,91.69,87.11,82.48,93,74c5.43-7.77,6.49-7.84,14.82-3.81,8.06,3.89,16.79,6,24.91,9.93,6.27,3,7.13,7.37,6.21,13.1s-5.92,5.35-9.91,6.13c-8.4,1.65-15.32-1.6-21.25-7.55C104.74,95.36,113.3,101.35,104.32,102.73Z"/><path class="cls-5" d="M174.13,86.36A5.34,5.34,0,0,1,172.58,91c-6.2,7.4-12.3,14.89-18.6,22.21-4.19,4.87-7.61,4.39-14.89-1.42-4.67-3.73-.67-6.57,1.19-9C146.35,94.69,152.91,87,159.1,79c2.17-2.8,3.78-3,6.45-.54C168.61,81.32,172.46,83.37,174.13,86.36Z"/><path class="cls-5" d="M189.42,105.4c-.17,2.81-2,4.24-3.77,5.58-6.69,4.92-13.53,9.65-20.09,14.74-3.71,2.88-5.87,1.18-8.47-1.53-2.86-3-2.42-5.27.23-8,5.91-6.16,11.79-12.36,17.35-18.83,3.8-4.43,6.62-4.53,9.78.56C186.07,100.49,189,102.29,189.42,105.4Z"/><path class="cls-5" d="M136.39,55.32c-1.76,4.26-4.93,7.76-7.32,11.73-3.41,5.67-7.13,4.15-11.81,1.85-11.26-5.55-11.35-5.37-3.44-15.26A23.35,23.35,0,0,1,115.93,51c2.49-2.33,3.5-7.55,7.42-6.75,5,1,8.74,5.08,12.09,9A8.93,8.93,0,0,1,136.39,55.32Z"/><path class="cls-5" d="M141.69,87.24c.57-5.33-1.42-8.54-5.68-10.12s-4.82-4.13-2.24-7.67c.52-.73.94-1.53,1.42-2.28,6.87-10.59,7.05-10.62,16.76-2.32,6,5.15,6.19,6.33.91,12.39-2.83,3.25-4.72,7.05-6.88,10.7-.78,1.32-1.33,3.26-3.26,2.66S141.7,88,141.69,87.24Z"/><path class="cls-5" d="M115.73,103.62c5.55-.75,10.52-1.44,15.5-2.1.88-.12,2-.19,2.2.86a3.62,3.62,0,0,1-.68,2.32C129.68,109.65,123.55,109.42,115.73,103.62Z"/></g></g></g></svg>