<svg xmlns="http://www.w3.org/2000/svg" xmlns:xlink="http://www.w3.org/1999/xlink" viewBox="0 0 263 263"><defs><style>.cls-1{fill:none;}.cls-2{fill:#fff;}.cls-3{clip-path:url(#clip-path);}.cls-4{fill:#fdfdfb;}.cls-5{fill:#c7c38b;}.cls-6{fill:#ccc789;}</style><clipPath id="clip-path"><circle class="cls-1" cx="131.5" cy="131.5" r="115.5"/></clipPath></defs><g id="Layer_2" data-name="Layer 2"><g id="Layer_1-2" data-name="Layer 1"><circle class="cls-2" cx="131.5" cy="131.5" r="131.5"/><g class="cls-3"><path class="cls-4" d="M252.34,131.44c0,39.22-.05,78.44.08,117.66,0,3.64-.27,5-4.66,5q-116.67-.3-233.35,0c-3.81,0-4.44-.86-4.43-4.51q.19-118,0-236c0-3.46.31-4.63,4.33-4.63q117,.26,234,0c3.45,0,4.09.89,4.08,4.17C252.3,52.56,252.34,92,252.34,131.44ZM131.86,248.71c59.42,1.62,115.28-47.94,115.79-115.15.5-65-50.62-116.8-115.14-117.5C68.79,15.36,17.26,67.85,16.56,132,15.84,197.69,71.1,250.43,131.86,248.71Z"/><path class="cls-5" d="M131.86,248.71c-60.76,1.72-116-51-115.3-116.76.7-64.1,52.23-116.59,116-115.89,64.52.7,115.64,52.45,115.14,117.5C247.14,200.77,191.28,250.33,131.86,248.71Zm0-222.35C77.12,25.69,26.38,70.24,26.62,132.93c.22,60.57,47.84,106.12,105.83,106.15S237.53,191,237.48,132A105.58,105.58,0,0,0,131.89,26.36Z"/><path class="cls-4" d="M131.89,26.36A105.58,105.58,0,0,1,237.48,132c.05,59-47.11,107.15-105,107.12S26.84,193.5,26.62,132.93C26.38,70.24,77.12,25.69,131.89,26.36ZM119.12,77.64c-5.05-1.33-8.27-3.91-9.31-9.65-.77-4.25-4.79-6.26-9.2-6.54-1.54-.1-3.56-.46-4.12,1.35a10,10,0,0,0,1.32,9c1.42,2.1,6.4,3.93,1,6.95-2.66,1.49-2,6.43-6.43,5.92-5.24-.59-5.69,2.56-5.66,6.68.12,14.57.17,29.15-.08,43.71-.08,4.39,1.32,5.93,5.71,5.91q40-.18,80,0c4.19,0,6-1.43,5.95-5.9-.2-14.79-.17-29.58,0-44.38,0-4.18-1.22-6.55-5.75-6-3.72.47-4.49-1.18-5.35-4.74-1.64-6.74-2.71-14-7.88-19.5,3.65,0,5.27-1.78,3.68-5s-5.14-2.15-7.88-2c-2.91.13-2.52,2.65-2.33,4.63a20.86,20.86,0,0,1-.3,4.87c-.72,5.61-3.22,10.49-4.95,15.67-.76,2.31,1.56,6-2.27,6.82-3.61.8-6.06-1.54-8.15-4.4,2.06-1,3.37.15,4.85.5,2.87.66,4.58-.14,3.31-3.46-1.36-3.57-6.47-7.11.1-10.64.19-.1-.07-1.27-.27-1.88-1.89-5.73-3-11.77-6.79-16.72-3.52-4.64-7.5-8.65-14.07-6.42-6.06,2.06-8.07,7.08-7.34,14.79.65,6.87,3,13.57,2.12,20.58ZM96.25,183.88,94.63,185q-8.53-9.37-17.07-18.75a21.62,21.62,0,0,1-2.5-3.15c-3.19-5.15-2.36-9.82,2.5-13.44,1.41-1.06,3.31-1.55,3.21-3.81-.36-8.49-.32-17-1.23-25.44-.65-6-7.91-8.92-12.71-5.48-4,2.88-4.06,7.68-3.7,11.65,1,10.74.64,21.47.91,32.19a21.18,21.18,0,0,0,6.35,15c7.39,7.48,14.52,15.22,21.77,22.84,1.23,1.3,3,2.46,2.61,4.45-1.26,7.24,3.19,7.44,8.38,7.19,4.47-.21,9,0,13.44,0,1.83,0,3.56-.17,4.6-2.05,1.51-2.71.1-19-2.26-21.42-9.81-9.81-19.44-19.8-28.58-30.25a8.14,8.14,0,0,0-3.27-2.26c-2.86-1-5.76-1.19-8.07,1.34s-1.75,5.51.15,8c2,2.64,4.71,4.79,6.76,7.43C89.64,173.72,94.63,177.74,96.25,183.88Zm73.44,1.49c-1.36-4.07.76-6,2.42-8,4.43-5.32,9.07-10.47,13.41-15.85,1.93-2.39,2.68-5.25.29-7.94-2.52-2.85-5.67-2.47-8.6-1a14.79,14.79,0,0,0-4.56,3.83c-7.49,8.92-15.17,17.74-24,25.34-8,6.92-4.61,15.63-5.09,23.72-.13,2.35,2.52,2.77,4.66,2.77,5.15,0,10.3-.19,15.44,0,4.38.21,7-.95,6.43-5.92-.28-2.4.76-4,2.51-5.8,7.41-7.45,14.55-15.18,21.84-22.75a18.8,18.8,0,0,0,5.56-11.2c1.51-13.81,1.42-27.69,1.05-41.54-.17-6.44-7.74-9.64-13-6.09-3.88,2.61-5.71,30.77-2.19,33.85a8.87,8.87,0,0,0,1.19.61c5.29,3.2,6.15,8,3,12.64C184.34,170.45,177.17,177.72,169.69,185.37Z"/><path class="cls-6" d="M119.05,77.71c.84-7-1.47-13.71-2.12-20.58-.73-7.71,1.28-12.73,7.34-14.79,6.57-2.23,10.55,1.78,14.07,6.42,3.76,5,4.9,11,6.79,16.72.2.61.46,1.78.27,1.88-6.57,3.53-1.46,7.07-.1,10.64,1.27,3.32-.44,4.12-3.31,3.46-1.48-.35-2.79-1.54-4.85-.5,2.09,2.86,4.54,5.2,8.15,4.4,3.83-.86,1.51-4.51,2.27-6.82,1.73-5.18,4.23-10.06,4.95-15.67a20.86,20.86,0,0,0,.3-4.87c-.19-2-.58-4.5,2.33-4.63,2.74-.12,6.25-1.28,7.88,2s0,5.06-3.68,5c5.17,5.55,6.24,12.76,7.88,19.5.86,3.56,1.63,5.21,5.35,4.74,4.53-.57,5.79,1.8,5.75,6-.14,14.8-.17,29.59,0,44.38.06,4.47-1.76,5.91-5.95,5.9q-40-.12-80,0c-4.39,0-5.79-1.52-5.71-5.91.25-14.56.2-29.14.08-43.71,0-4.12.42-7.27,5.66-6.68,4.4.51,3.77-4.43,6.43-5.92,5.39-3,.41-4.85-1-6.95a10,10,0,0,1-1.32-9c.56-1.81,2.58-1.45,4.12-1.35,4.41.28,8.43,2.29,9.2,6.54,1,5.74,4.26,8.32,9.31,9.65a1.84,1.84,0,0,0,.22.47c.06.06.24,0,.36,0ZM132.52,95c-10.51,0-21,.1-31.54-.06-3.35,0-4.84.82-4.78,4.46q.24,13.75-.09,27.51c-.08,3.57,1.32,4.65,4.73,4.64q31.53-.14,63.07,0c3.22,0,5-.94,5-4.57-.16-9.17-.23-18.34-.07-27.51.06-3.59-1.36-4.56-4.76-4.5C153.54,95.08,143,95,132.52,95Z"/><path class="cls-6" d="M96.25,183.88c-1.62-6.14-6.61-10.16-10.33-14.95-2-2.64-4.72-4.79-6.76-7.43-1.9-2.45-2.57-5.3-.15-8s5.21-2.33,8.07-1.34a8.14,8.14,0,0,1,3.27,2.26c9.14,10.45,18.77,20.44,28.58,30.25,2.36,2.37,3.77,18.71,2.26,21.42-1,1.88-2.77,2-4.6,2.05-4.48,0-9-.16-13.44,0-5.19.25-9.64.05-8.38-7.19.34-2-1.38-3.15-2.61-4.45-7.25-7.62-14.38-15.36-21.77-22.84a21.18,21.18,0,0,1-6.35-15c-.27-10.72.08-21.45-.91-32.19-.36-4-.31-8.77,3.7-11.65,4.8-3.44,12.06-.56,12.71,5.48.91,8.42.87,17,1.23,25.44.1,2.26-1.8,2.75-3.21,3.81-4.86,3.62-5.69,8.29-2.5,13.44a21.62,21.62,0,0,0,2.5,3.15q8.52,9.39,17.07,18.75Z"/><path class="cls-6" d="M169.69,185.37c7.48-7.65,14.65-14.92,20.37-23.34,3.16-4.64,2.3-9.44-3-12.64a8.87,8.87,0,0,1-1.19-.61c-3.52-3.08-1.69-31.24,2.19-33.85,5.28-3.55,12.85-.35,13,6.09.37,13.85.46,27.73-1.05,41.54a18.8,18.8,0,0,1-5.56,11.2c-7.29,7.57-14.43,15.3-21.84,22.75-1.75,1.76-2.79,3.4-2.51,5.8.6,5-2,6.13-6.43,5.92-5.14-.24-10.29-.06-15.44,0-2.14,0-4.79-.42-4.66-2.77.48-8.09-2.93-16.8,5.09-23.72,8.79-7.6,16.47-16.42,24-25.34a14.79,14.79,0,0,1,4.56-3.83c2.93-1.43,6.08-1.81,8.6,1,2.39,2.69,1.64,5.55-.29,7.94-4.34,5.38-9,10.53-13.41,15.85C170.45,179.35,168.33,181.3,169.69,185.37Z"/><path class="cls-4" d="M132.52,95c10.51,0,21,.1,31.53-.06,3.4-.06,4.82.91,4.76,4.5-.16,9.17-.09,18.34.07,27.51.06,3.63-1.75,4.58-5,4.57q-31.53-.06-63.07,0c-3.41,0-4.81-1.07-4.73-4.64q.31-13.76.09-27.51c-.06-3.64,1.43-4.51,4.78-4.46C111.49,95.08,122,95,132.52,95Z"/><path class="cls-4" d="M119.05,77.71l.65.44c-.12,0-.3,0-.36,0a1.84,1.84,0,0,1-.22-.47Z"/></g></g></g></svg>