<svg xmlns="http://www.w3.org/2000/svg" xmlns:xlink="http://www.w3.org/1999/xlink" viewBox="0 0 263 263"><defs><style>.cls-1{fill:none;}.cls-2{fill:#fff;}.cls-3{clip-path:url(#clip-path);}.cls-4{fill:#f8f8fa;}.cls-5{fill:#585d87;}.cls-6{fill:#515885;}</style><clipPath id="clip-path"><circle class="cls-1" cx="131.5" cy="131.5" r="115.5"/></clipPath></defs><g id="Layer_2" data-name="Layer 2"><g id="Layer_1-2" data-name="Layer 1"><circle class="cls-2" cx="131.5" cy="131.5" r="131.5"/><g class="cls-3"><path class="cls-4" d="M257.18,131.89c0,40.25-.05,80.5.09,120.75,0,3.66-.29,5-4.68,5q-119.08-.28-238.18,0c-3.83,0-4.45-.88-4.44-4.54Q10.16,132,10,10.89c0-3.47.33-4.64,4.34-4.63q119.43.24,238.86,0c3.47,0,4.09.91,4.08,4.19Q257.08,71.18,257.18,131.89ZM130.84,248c64,.26,116.23-51.89,116.44-116.19.21-64-51.6-116.78-114.94-117.16-63.92-.38-116.42,51.82-116.67,116C15.42,195.34,66.86,247.76,130.84,248Z"/><path class="cls-5" d="M130.84,248c-64-.25-115.42-52.67-115.17-117.35.25-64.18,52.75-116.38,116.67-116,63.34.38,115.15,53.19,114.94,117.16C247.07,196.12,194.81,248.27,130.84,248ZM25.6,131.42c0,59.18,47.25,107,105.83,107.09,58.38.08,105.74-47.85,105.83-107.08S190.13,24.5,131.43,24.56C72.58,24.62,25.63,72,25.6,131.42Z"/><path class="cls-4" d="M25.6,131.42c0-59.39,47-106.8,105.83-106.86,58.7-.06,105.91,47.62,105.83,106.87S189.81,238.59,131.43,238.51C72.85,238.43,25.57,190.6,25.6,131.42Zm46.2-8.14c-3.35-4.64-6.15-8.7-9.16-12.6-1.16-1.5-2.49-3.59-4.94-2.15-1.86,1.09-1.85,3-1.32,4.82A144.16,144.16,0,0,0,61,127.41c7.7,18.47,16.25,36.72,10,57.62-.64,2.12-.62,4.44-1,6.64a4.77,4.77,0,0,0,2,5.27c6.37,4.59,12.59,9.21,20.55,11.12,3.9.93,4.18-.27,4.16-3.31-.07-8.54-.17-17.09,0-25.63.11-4.9-.61-10.55,2.7-14.3,6.22-7,11.42-14.74,16.78-22.63.81,9-.39,17.81-1.46,26.56-1.53,12.47-3.3,24.91-5.06,37.35-.54,3.85.77,5.68,4.78,6.16,7.33.87,14.45,2.29,22,1.18,5.5-.79,6.2-2.89,6.3-7.68.52-24.7-2.83-49.36-.63-74.08.35-4,1.27-6.89,5.18-8.59,5.37,7.2,7.07,15.66,9.16,24.21,3.18,13,7.72,25.65,4.83,39.44-1.41,6.77-2.89,13.58-2.73,20.64.07,3.26.75,4.34,4.21,3.85a52.63,52.63,0,0,0,20.79-7.12c3.4-2.1,5-4.49,4.85-8.68-.35-7.4,0-14.82-.19-22.23a7.05,7.05,0,0,1,3.3-6.72,35.61,35.61,0,0,0,12.77-15.4c1.95-4.79,3.17-9.77,7.33-13.33a3.64,3.64,0,0,0,.79-4.92c-1.42-2-3.69-1.3-5.57-.49-4.22,1.81-6.15,5.72-8.33,9.39-.71,1.19-1.68,2.29-3.22,2-1.9-.35-1.38-2-1.4-3.25-.09-5.64.17-11.24,2-16.64,1.68-4.88,3.52-9.72,5-14.66.87-2.85,2.81-6.72-.94-8.36-4.25-1.86-5.74,2.15-6.93,5.32-1.26,3.36-2.17,6.85-3.41,10.21-1.09,3-1.83,6.22-5.29,8.84V98.09c0-2.43-.6-4.8-3.36-5-2.44-.21-3.2,2.06-3.84,4-1.7,5.26-.84,10.7-1.18,16.06-.29,4.5.07,9.17-3.1,13.55-5.08-7-5.86-15-8.83-22.21-1-2.47-1.47-4.5.3-6.79,1.27-1.66,2-3.85.17-5.47s-4.21-.81-6.27.29c-2.36,1.26-3.23,3.65-4.45,5.78s-2.31,4.84-5.61,4.82C146.83,92.71,149.64,83.35,153,74c1.37-3.79,5.21-10.07-.14-11.72S146.5,67.7,145,72s-2.18,8.84-6.43,12.76c0-7.48.25-14-.09-20.42-.19-3.53,1.78-9.78-2.48-9.91-5.25-.15-4.24,6.21-4.48,10.27-.39,6.84-.79,13.66-2.92,20.41-2.76-5.57-4.56-11.29-6.83-16.82-1.28-3.11-2-8.85-6.08-7.51-4.44,1.47-1.46,6.56-.69,10,1.33,5.9,3.62,11.61,4.1,19.12-5.23-4.43-7.48-9.34-10.45-13.7-1.2-1.77-2.11-4.72-4.91-3.49-3,1.33-1.75,4.16-1.11,6.52,1.3,4.85,4.18,8.92,6.47,13.29,1,1.87,2.66,5-.47,5.41-5.63.7-5.69,4.88-7,8.53-1.71,4.69-2.77,9.68-6.32,13.8-.75-8.79-.58-17.46-.86-26.13-.07-2.39-.1-6.22-4.08-5.63-3.26.47-3.49,3.68-3.52,6.46,0,1.58.18,3.15.12,4.72-.28,7.79-.59,15.58-2.83,25.06C80.67,115,77.86,107,75.1,99c-.53-1.53-1-3.28-2.92-3.14-2.16.15-2.94,2-2.84,3.88.14,2.91.61,5.81.82,8.72C70.5,113.29,73.16,117.84,71.8,123.28Z"/><path class="cls-6" d="M71.8,123.28c1.36-5.44-1.3-10-1.64-14.8-.21-2.91-.68-5.81-.82-8.72-.1-1.92.68-3.73,2.84-3.88,1.92-.14,2.39,1.61,2.92,3.14,2.76,8,5.57,15.93,9,25.69,2.24-9.48,2.55-17.27,2.83-25.06.06-1.57-.14-3.14-.12-4.72,0-2.78.26-6,3.52-6.46,4-.59,4,3.24,4.08,5.63.28,8.67.11,17.34.86,26.13,3.55-4.12,4.61-9.11,6.32-13.8,1.33-3.65,1.39-7.83,7-8.53,3.13-.39,1.45-3.54.47-5.41-2.29-4.37-5.17-8.44-6.47-13.29-.64-2.36-1.88-5.19,1.11-6.52,2.8-1.23,3.71,1.72,4.91,3.49,3,4.36,5.22,9.27,10.45,13.7-.48-7.51-2.77-13.22-4.1-19.12-.77-3.42-3.75-8.51.69-10,4.07-1.34,4.8,4.4,6.08,7.51,2.27,5.53,4.07,11.25,6.83,16.82,2.13-6.75,2.53-13.57,2.92-20.41.24-4.06-.77-10.42,4.48-10.27,4.26.13,2.29,6.38,2.48,9.91.34,6.45.09,12.94.09,20.42,4.25-3.92,4.94-8.53,6.43-12.76s2.63-11.39,7.91-9.76S154.4,70.16,153,74c-3.39,9.4-6.2,18.76-4.84,29.16,3.3,0,4.32-2.56,5.61-4.82s2.09-4.52,4.45-5.78c2.06-1.1,4.32-2,6.27-.29s1.1,3.81-.17,5.47c-1.77,2.29-1.33,4.32-.3,6.79,3,7.16,3.75,15.2,8.83,22.21,3.17-4.38,2.81-9,3.1-13.55.34-5.36-.52-10.8,1.18-16.06.64-2,1.4-4.24,3.84-4,2.76.24,3.35,2.61,3.36,5V125.2c3.46-2.62,4.2-5.88,5.29-8.84,1.24-3.36,2.15-6.85,3.41-10.21,1.19-3.17,2.68-7.18,6.93-5.32,3.75,1.64,1.81,5.51.94,8.36-1.5,4.94-3.34,9.78-5,14.66-1.86,5.4-2.12,11-2,16.64,0,1.22-.5,2.9,1.4,3.25,1.54.28,2.51-.82,3.22-2,2.18-3.67,4.11-7.58,8.33-9.39,1.88-.81,4.15-1.47,5.57.49a3.64,3.64,0,0,1-.79,4.92c-4.16,3.56-5.38,8.54-7.33,13.33a35.61,35.61,0,0,1-12.77,15.4,7.05,7.05,0,0,0-3.3,6.72c.19,7.41-.16,14.83.19,22.23.2,4.19-1.45,6.58-4.85,8.68a52.63,52.63,0,0,1-20.79,7.12c-3.46.49-4.14-.59-4.21-3.85-.16-7.06,1.32-13.87,2.73-20.64,2.89-13.79-1.65-26.43-4.83-39.44-2.09-8.55-3.79-17-9.16-24.21-3.91,1.7-4.83,4.63-5.18,8.59-2.2,24.72,1.15,49.38.63,74.08-.1,4.79-.8,6.89-6.3,7.68-7.59,1.11-14.71-.31-22-1.18-4-.48-5.32-2.31-4.78-6.16,1.76-12.44,3.53-24.88,5.06-37.35,1.07-8.75,2.27-17.53,1.46-26.56-5.36,7.89-10.56,15.58-16.78,22.63-3.31,3.75-2.59,9.4-2.7,14.3-.18,8.54-.08,17.09,0,25.63,0,3-.26,4.24-4.16,3.31-8-1.91-14.18-6.53-20.55-11.12a4.77,4.77,0,0,1-2-5.27c.41-2.2.39-4.52,1-6.64,6.25-20.9-2.3-39.15-10-57.62a144.16,144.16,0,0,1-4.57-14.06c-.53-1.77-.54-3.73,1.32-4.82,2.45-1.44,3.78.65,4.94,2.15C65.65,114.58,68.45,118.64,71.8,123.28Zm38.11-19c-.75,12.65-8.77,23.27-4.75,36.44,4.26-4.81,5.57-11.27,11.82-13.3,1.19-.39,1.1-1.84.77-3C115.77,117.92,114.86,111,109.91,104.28Zm53.53,25.58-5.09-20.17C152,117.58,153.15,123.08,163.44,129.86Z"/><path class="cls-4" d="M109.91,104.28c5,6.7,5.86,13.64,7.84,20.18.33,1.12.42,2.57-.77,3-6.25,2-7.56,8.49-11.82,13.3C101.14,127.55,109.16,116.93,109.91,104.28Z"/><path class="cls-4" d="M163.44,129.86c-10.29-6.78-11.45-12.28-5.09-20.17Z"/></g></g></g></svg>