<svg xmlns="http://www.w3.org/2000/svg" xmlns:xlink="http://www.w3.org/1999/xlink" viewBox="0 0 263 263"><defs><style>.cls-1{fill:none;}.cls-2{fill:#fff;}.cls-3{clip-path:url(#clip-path);}.cls-4{fill:#fcfdfd;}.cls-5{fill:#7094a1;}.cls-6{fill:#68909e;}</style><clipPath id="clip-path"><circle class="cls-1" cx="131.5" cy="131.5" r="115.5"/></clipPath></defs><g id="Layer_2" data-name="Layer 2"><g id="Layer_1-2" data-name="Layer 1"><circle class="cls-2" cx="131.5" cy="131.5" r="131.5"/><g class="cls-3"><path class="cls-4" d="M256.59,132.89c0,39.84,0,79.68.08,119.52,0,3.65-.28,5-4.65,5q-119.9-.28-239.78,0c-3.81,0-4.43-.87-4.43-4.51Q8,133,7.83,13.13c0-3.46.32-4.62,4.32-4.61q120.23.24,240.45,0c3.46,0,4.08.9,4.07,4.17Q256.49,72.8,256.59,132.89Zm-9.43-1.08C248.55,70,197.83,14.56,131.56,14.66,64.58,14.76,16,70.52,15.94,131.37c0,61.79,48.84,117.1,115.84,117.12C198.09,248.51,248.26,193,247.16,131.81Z"/><path class="cls-5" d="M247.16,131.81c1.1,61.22-49.07,116.7-115.38,116.68-67,0-115.85-55.33-115.84-117.12C16,70.52,64.58,14.76,131.56,14.66,197.83,14.56,248.55,70,247.16,131.81ZM132.29,25.86A105.31,105.31,0,0,0,26.64,131c-.12,58.61,46.6,106.16,104.47,106.31a105.07,105.07,0,0,0,105.5-105.15C236.76,73.33,190.26,26,132.29,25.86Z"/><path class="cls-4" d="M132.29,25.86c58,.09,104.47,47.47,104.32,106.29A105.07,105.07,0,0,1,131.11,237.3C73.24,237.15,26.52,189.6,26.64,131A105.31,105.31,0,0,1,132.29,25.86Zm-4.1,162.84v0c16.78,0,33.57-.08,50.35,0,12.2.09,12.19.21,12.17-11.64,0-15.37,0-15.34-15.23-15.34-34,0-68,.11-102-.28-6.65-.08-8.72,1.9-7.92,8.26a58,58,0,0,1,0,12.07c-.45,5.3,1.59,7,6.9,7C91,188.55,109.62,188.7,128.19,188.7ZM92.56,145.58c1.67-3.5.71-8.07,4.53-9,6-1.39,3.26-5.65,3.26-8.53,0-3.75-3.6-2.35-5.79-2.49-3.13-.2-6.28.12-9.4-.1-3.94-.27-6,1.39-7.58,5-3.06,7.16-6.39,14.22-10.12,21-2.8,5.12-.95,6.28,3.93,6.25,11.65-.07,23.29,0,34.94,0,25.53,0,51.06,0,76.59,0,7,0,7.85-1.76,4.53-7.95-1.57-2.92-3.71-5.78-4.35-8.93-2.66-13-11-16.23-22.79-14-2.09.4-5.57-1.44-5.68,2.59-.08,2.68-1.83,6.27,3.39,7.16,3,.52,2.54,4.3,2.88,6.78.31,2.27-1.79,2.14-3.32,2.14C136.14,145.59,114.69,145.58,92.56,145.58Zm35.49-3.82c6.26,0,12.54-.17,18.8.06,3.77.14,5.06-1.15,5-5-.23-10.29-.06-20.58-.12-30.88,0-1.45.75-3.36-.91-4.28-2-1.12-3.21.75-4.54,1.86a77,77,0,0,1-17.88,11.65c-2.4,1.06-4.83,1.76-6.69-.64-1.67-2.16-2.77-4.64-1.16-7.44.77-1.36,1.38-2.81,2.2-4.14,1.72-2.77,1.06-4.27-2.25-4.12-4.69.2-9.36.61-14,.88-2.7.16-3.15,1.82-3.14,4.11.08,11,.16,21.93,0,32.9,0,3.8,1.57,5.16,5.23,5.08C115.06,141.67,121.56,141.78,128.05,141.76Zm22.57-75.25c-9.65-2.76-14.42,5.57-21.4,8.91-7.16,3.42-10.52,9.17-12.64,16.22-.58,1.9-2,4,.67,5.11,2.43,1,5.23,1.63,7.12-1.37,1.3-2,1.86-4.55,3.92-6.14,2.61-2,6.21-2.32,8.09-.62,2.38,2.16-.82,4.32-2.41,5.88-3.67,3.62-7.22,7.28-9.7,11.85-.9,1.67-1.34,3.56-.1,5s3.36,1.06,4.94.14a42.11,42.11,0,0,0,7.2-4.79c7-6.38,16.39-10,20.63-19.71,1-2.3,4.81-3.62,4.34-7.59-.39-3.3.58-6.91-.35-10C159.22,63.76,154,67.61,150.62,66.51ZM180,59.71c-4,0-8.07,0-12.1,0-2.15,0-4.17.11-4,3.06.38,7.54-2.75,16.36,1.48,22.22,3.32,4.6,11.78.91,17.91,1.54a17,17,0,0,0,2,0c10.75-.13,10.75-.13,10.82-11C196.17,59.57,196.17,59.57,180,59.71Z"/><path class="cls-6" d="M128.19,188.7c-18.57,0-37.15-.15-55.72.1-5.31.07-7.35-1.67-6.9-7a58,58,0,0,0,0-12.07c-.8-6.36,1.27-8.34,7.92-8.26,34,.39,68,.26,102,.28,15.21,0,15.21,0,15.23,15.34,0,11.85,0,11.73-12.17,11.64-16.78-.11-33.57,0-50.35,0Z"/><path class="cls-6" d="M92.56,145.58c22.13,0,43.58,0,65,0,1.53,0,3.63.13,3.32-2.14-.34-2.48.12-6.26-2.88-6.78-5.22-.89-3.47-4.48-3.39-7.16.11-4,3.59-2.19,5.68-2.59,11.81-2.25,20.13,1,22.79,14,.64,3.15,2.78,6,4.35,8.93,3.32,6.19,2.46,7.93-4.53,7.95-25.53.09-51.06,0-76.59,0-11.65,0-23.29-.05-34.94,0-4.88,0-6.73-1.13-3.93-6.25,3.73-6.83,7.06-13.89,10.12-21,1.55-3.63,3.64-5.29,7.58-5,3.12.22,6.27-.1,9.4.1,2.19.14,5.78-1.26,5.79,2.49,0,2.88,2.72,7.14-3.26,8.53C93.27,137.51,94.23,142.08,92.56,145.58Z"/><path class="cls-6" d="M128.05,141.77c-6.49,0-13-.1-19.48,0-3.66.08-5.27-1.28-5.23-5.08.11-11,0-21.93,0-32.9,0-2.29.44-4,3.14-4.11,4.69-.27,9.36-.68,14-.88,3.31-.15,4,1.35,2.25,4.12-.82,1.33-1.43,2.78-2.2,4.14-1.61,2.8-.51,5.28,1.16,7.44,1.86,2.4,4.29,1.7,6.69.64a77,77,0,0,0,17.88-11.65c1.33-1.11,2.51-3,4.54-1.86,1.66.92.9,2.83.91,4.28.06,10.3-.11,20.59.12,30.88.08,3.83-1.21,5.12-5,5C140.59,141.59,134.31,141.76,128.05,141.77Z"/><path class="cls-6" d="M150.62,66.51c3.35,1.1,8.6-2.75,10.31,2.9.93,3.08,0,6.69.35,10,.47,4-3.33,5.29-4.34,7.59-4.24,9.7-13.65,13.33-20.63,19.71a42.11,42.11,0,0,1-7.2,4.79c-1.58.92-3.6,1.4-4.94-.14s-.8-3.33.1-5c2.48-4.57,6-8.23,9.7-11.85,1.59-1.56,4.79-3.72,2.41-5.88-1.88-1.7-5.48-1.39-8.09.62-2.06,1.59-2.62,4.09-3.92,6.14-1.89,3-4.69,2.34-7.12,1.37-2.71-1.08-1.25-3.21-.67-5.11,2.12-7,5.48-12.8,12.64-16.22C136.2,72.08,141,63.75,150.62,66.51Z"/><path class="cls-6" d="M180,59.71c16.21-.14,16.21-.14,16.11,15.76-.07,10.92-.07,10.92-10.82,11a17,17,0,0,1-2,0c-6.13-.63-14.59,3.06-17.91-1.54-4.23-5.86-1.1-14.68-1.48-22.22-.15-2.95,1.87-3.07,4-3.06C171.89,59.73,175.93,59.71,180,59.71Z"/></g></g></g></svg>