<svg width="255" height="194" viewBox="0 0 255 194" fill="none" xmlns="http://www.w3.org/2000/svg">
<g clip-path="url(#clip0)" filter="url(#filter0_d)">
<path opacity="0.4" d="M212.466 71.5099C215.735 71.5099 218.385 68.8551 218.385 65.5802C218.385 62.3052 215.735 59.6504 212.466 59.6504C209.198 59.6504 206.548 62.3052 206.548 65.5802C206.548 68.8551 209.198 71.5099 212.466 71.5099Z" fill="#658E9C"/>
<path opacity="0.4" d="M87.6811 38.8861C92.3406 38.8861 96.118 35.1015 96.118 30.433C96.118 25.7645 92.3406 21.98 87.6811 21.98C83.0215 21.98 79.2441 25.7645 79.2441 30.433C79.2441 35.1015 83.0215 38.8861 87.6811 38.8861Z" fill="#658E9C"/>
<path opacity="0.4" d="M72.0664 40.4005C75.335 40.4005 77.9848 37.7457 77.9848 34.4708C77.9848 31.1959 75.335 28.541 72.0664 28.541C68.7977 28.541 66.1479 31.1959 66.1479 34.4708C66.1479 37.7457 68.7977 40.4005 72.0664 40.4005Z" fill="#658E9C"/>
<path d="M217.423 131.89C212.746 137.019 212.577 144.491 212.577 144.491C212.577 144.491 219.989 143.647 224.665 138.517C229.342 133.388 229.511 125.916 229.511 125.916C229.511 125.916 222.099 126.76 217.423 131.89Z" fill="#3F3D56"/>
<path d="M220.065 133.366C218.65 140.167 212.701 144.678 212.701 144.678C212.701 144.678 209.047 138.162 210.462 131.361C211.877 124.559 217.826 120.049 217.826 120.049C217.826 120.049 221.48 126.565 220.065 133.366Z" fill="#658E9C"/>
<path d="M213.991 63.1875V144.263L187.017 166.589H49.0215V81.5961L89.2865 63.1875H213.991Z" fill="#3F3D56"/>
<path opacity="0.1" d="M213.991 63.1875V63.5124L204.308 70.0064L187.017 81.5961H49.0215L89.2865 63.1875H213.991Z" fill="black"/>
<path opacity="0.1" d="M213.991 63.1875V144.263L187.018 166.589L187.213 81.4003L204.308 70.0064L213.835 63.1875H213.991Z" fill="black"/>
<path d="M177.635 74.3498H93.5864L99.8412 70.8247H180.372L177.635 74.3498Z" fill="#2F2E41"/>
<path d="M250.175 170.999C250.175 170.999 251.804 177.825 250.323 178.122C248.842 178.419 241.583 178.323 239.806 178.62C238.028 178.917 234.325 178.419 234.325 177.083C234.325 175.748 238.176 174.857 238.176 174.857C238.176 174.857 243.657 171.889 243.805 171.741C243.953 171.592 250.175 170.999 250.175 170.999Z" fill="#2F2E41"/>
<path d="M248.842 130.779C248.842 130.779 248.398 135.825 248.398 136.27C248.398 136.716 248.842 143.691 248.398 143.988C247.953 144.284 248.694 146.362 248.694 147.104C248.694 147.846 251.064 160.164 250.471 164.913C249.879 169.662 251.36 169.217 250.916 169.662C250.471 170.108 250.471 170.108 250.471 170.998C250.471 171.889 245.731 172.631 245.731 172.631L240.547 139.832L243.213 130.037L248.842 130.779Z" fill="#575A89"/>
<path opacity="0.1" d="M248.842 130.779C248.842 130.779 248.398 135.825 248.398 136.27C248.398 136.716 248.842 143.691 248.398 143.988C247.953 144.284 248.694 146.362 248.694 147.104C248.694 147.846 251.064 160.164 250.471 164.913C249.879 169.662 251.36 169.217 250.916 169.662C250.471 170.108 250.471 170.108 250.471 170.998C250.471 171.889 245.731 172.631 245.731 172.631L240.547 139.832L243.213 130.037L248.842 130.779Z" fill="black"/>
<path d="M248.101 173.076C248.101 173.076 249.582 178.419 248.101 178.716C246.62 179.012 239.362 178.376 237.584 178.672C235.807 178.969 232.104 179.013 232.104 177.677C232.104 176.341 235.955 175.451 235.955 175.451C235.955 175.451 241.435 172.482 241.584 172.334C241.732 172.186 248.101 173.076 248.101 173.076Z" fill="#2F2E41"/>
<path d="M250.175 124.843C250.175 124.843 251.953 129.147 249.879 131.373C247.805 133.599 245.435 138.052 245.435 138.349C245.435 138.645 249.583 168.179 248.99 170.108C248.398 172.037 248.546 173.225 248.694 173.522C248.842 173.818 247.213 175.451 245.435 175.451C243.658 175.451 240.991 174.115 240.695 172.928C240.399 171.741 241.139 161.5 240.991 159.571C240.843 157.642 240.103 154.822 239.806 154.228C239.51 153.635 237.881 153.041 237.584 151.26C237.288 149.479 234.918 126.773 235.659 126.031C236.399 125.288 250.175 124.843 250.175 124.843Z" fill="#575A89"/>
<path d="M238.917 90.709C241.699 90.709 243.953 88.4499 243.953 85.6631C243.953 82.8763 241.699 80.6172 238.917 80.6172C236.136 80.6172 233.881 82.8763 233.881 85.6631C233.881 88.4499 236.136 90.709 238.917 90.709Z" fill="#FFB9B9"/>
<path d="M242.028 88.1858C242.028 88.1858 240.991 93.6769 241.732 94.2706C242.472 94.8642 236.103 95.7547 236.103 95.7547C236.103 95.7547 235.362 88.4826 235.214 87.7406C235.066 86.9985 242.028 88.1858 242.028 88.1858Z" fill="#FFB9B9"/>
<path d="M235.214 95.3099C235.214 95.3099 236.992 90.1156 244.25 91.5997C244.25 91.5997 245.583 92.0449 245.139 92.4901C244.694 92.9354 244.25 92.9354 244.843 93.3806C245.435 93.8258 246.176 93.3806 245.731 93.8258C245.287 94.2711 249.731 96.9424 249.434 101.988C249.138 107.034 250.471 114.158 249.434 115.345C248.398 116.532 250.175 121.727 249.879 122.766C249.583 123.805 251.656 125.14 250.768 125.585C249.879 126.031 233.881 128.702 233.437 125.585C232.993 122.469 233.289 124.695 232.844 123.953C232.4 123.211 232.252 121.875 232.548 120.243C232.844 118.61 233.585 114.603 233.289 113.119C232.993 111.635 233.289 99.1686 234.178 97.6845C235.066 96.2004 235.214 95.3099 235.214 95.3099Z" fill="#658E9C"/>
<path d="M238.325 131.521C238.325 131.521 240.546 139.981 237.732 139.981C234.918 139.981 235.066 131.225 235.066 131.225L238.325 131.521Z" fill="#FFB9B9"/>
<path d="M236.695 85.6632C236.695 86.0936 237.317 86.3666 238.282 86.429H238.283C238.692 86.4522 239.102 86.4443 239.51 86.4052C240.126 86.3488 240.381 86.9291 240.486 87.6949C240.658 88.9579 240.418 90.7284 240.695 91.0059C241.077 91.3888 243.863 91.0044 244.734 90.1363C244.87 90.0144 244.96 89.8501 244.99 89.6702C245.082 89.1401 245.343 88.6541 245.734 88.2856C246.248 87.7231 246.98 87.0998 247.805 86.1084C249.286 84.3275 247.805 84.1791 247.36 82.8434C246.916 81.5077 246.175 81.0625 246.175 80.172C246.175 79.2816 242.768 78.5395 239.954 78.688C237.14 78.8364 237.732 82.3982 237.732 82.3982C237.732 82.3982 237.565 82.8286 237.365 83.3836C237.094 84.0801 236.875 84.7954 236.707 85.5237C236.7 85.5699 236.696 85.6165 236.695 85.6632Z" fill="#2F2E41"/>
<path opacity="0.1" d="M237.288 97.5358C237.288 97.5358 242.324 97.239 242.768 104.659C243.213 112.08 243.065 119.055 243.065 119.204C243.065 119.352 240.991 133.451 239.065 133.451C237.14 133.451 235.658 133.154 235.214 132.412C234.77 131.67 236.399 120.984 236.399 120.984C236.399 120.984 237.14 109.705 235.955 106.144C234.77 102.582 234.621 97.981 237.288 97.5358Z" fill="black"/>
<path d="M236.548 96.7936C236.548 96.7936 241.584 96.4968 242.028 103.917C242.473 111.338 242.324 118.313 242.324 118.461C242.324 118.61 240.251 132.709 238.325 132.709C236.399 132.709 234.918 132.412 234.474 131.67C234.029 130.928 235.659 120.242 235.659 120.242C235.659 120.242 236.399 108.963 235.214 105.401C234.029 101.84 233.881 97.2388 236.548 96.7936Z" fill="#658E9C"/>
<path d="M153.035 24.2493C153.035 24.2493 150.84 18.0186 149.255 19.9733C147.669 21.928 151.693 25.2266 151.693 25.2266L153.035 24.2493Z" fill="#A0616A"/>
<path d="M163.399 18.1411L162.079 18.6314C162.079 18.6314 161.448 21.4397 161.692 21.9283C161.936 22.417 162.058 22.0505 161.692 23.0279C161.326 24.0052 160.229 26.5708 160.107 26.9373C159.985 27.3038 153.035 24.6161 153.035 23.2722C153.035 23.2722 151.571 24.9826 150.84 25.3491C150.84 25.3491 158.888 31.2132 159.985 31.9462C161.082 32.6792 161.692 32.3127 162.668 31.4575C163.643 30.6023 167.789 23.5165 167.789 23.5165L163.399 18.1411Z" fill="#575A89"/>
<path d="M159.863 61.5108C159.863 61.5108 159.985 62.8547 160.229 62.9768C160.473 63.099 162.302 66.1532 160.229 66.7641C158.156 67.3749 156.937 67.1306 156.449 67.3749C155.961 67.6192 147.426 68.1079 147.304 66.7641C147.182 65.4202 151.45 65.1759 151.45 65.1759C151.45 65.1759 155.352 62.6103 155.961 61.2665C156.571 59.9226 159.863 61.5108 159.863 61.5108Z" fill="#2F2E41"/>
<path d="M184.616 63.9541C184.616 63.9541 187.543 68.963 186.811 69.5739C186.079 70.1847 178.954 72.4108 177.91 72.5059C176.568 72.6281 175.593 71.5286 176.69 70.9177C177.788 70.3069 180.105 67.7413 180.105 66.8861V64.6871L184.616 63.9541Z" fill="#2F2E41"/>
<path d="M187.42 31.2129C187.42 31.2129 189.981 34.3893 185.957 39.5204L179.251 48.0722C179.251 48.0722 183.397 54.6693 183.519 58.09C183.64 61.5107 184.494 60.7777 184.738 62.2437C184.982 63.7098 186.079 62.9768 185.226 64.0763C184.372 65.1758 181.202 66.1531 180.226 65.298C179.891 64.9904 179.629 64.611 179.46 64.188C179.291 63.7649 179.219 63.3092 179.251 62.8546C179.251 62.3659 177.544 59.556 177.422 58.7009C177.3 57.8457 172.788 50.8821 172.788 50.8821C172.788 50.8821 171.325 46.7283 173.032 44.4071C174.739 42.0859 175.867 38.7938 175.867 38.7938C175.867 38.7938 170.837 44.8958 167.301 46.3618C167.301 46.3618 165.96 46.6062 166.204 47.217C166.448 47.8278 166.204 48.1943 165.838 48.8052C165.472 49.416 162.911 56.5018 162.058 58.3344C161.204 60.1669 161.57 61.2664 160.595 61.8773C159.619 62.4881 155.229 61.9994 155.229 61.3886C155.229 60.7777 155.839 59.1896 156.205 58.3344C156.571 57.4792 159.497 47.5835 159.253 45.8731C159.009 44.1628 159.375 41.8416 161.204 40.8642C163.033 39.8869 172.3 31.9459 172.788 31.9459C173.276 31.9459 187.42 31.2129 187.42 31.2129Z" fill="#2F2E41"/>
<path d="M162.911 12.0327C165.74 12.0327 168.033 9.73542 168.033 6.9016C168.033 4.06777 165.74 1.77051 162.911 1.77051C160.083 1.77051 157.79 4.06777 157.79 6.9016C157.79 9.73542 160.083 12.0327 162.911 12.0327Z" fill="#A0616A"/>
<path d="M167.057 7.39014C167.057 7.39014 168.642 10.2 170.593 10.5665C172.544 10.9331 165.472 16.5528 165.472 16.5528C165.472 16.5528 163.765 11.1774 162.302 10.933C160.838 10.6887 167.057 7.39014 167.057 7.39014Z" fill="#A0616A"/>
<path d="M162.058 18.8739C162.058 20.462 166.814 24.9823 166.814 24.9823L171.325 28.7695C171.325 28.7695 171.447 30.1134 171.935 30.2355C172.423 30.3577 173.032 30.3577 172.545 31.0907C172.057 31.8237 170.837 33.4119 171.935 33.6563C172.266 33.7067 172.599 33.7385 172.933 33.7515C173.226 33.7687 173.57 33.7845 173.957 33.7992C174.859 33.831 175.988 33.8517 177.211 33.8432C177.559 33.842 177.912 33.8379 178.272 33.831C182.882 33.7393 188.223 33.2079 187.786 31.4572C187.055 28.5252 187.543 27.5478 185.957 25.9596C184.372 24.3714 181.812 18.8738 181.812 18.8738C181.812 18.8738 176.69 10.1999 172.423 10.1999L171.536 9.96652C171.124 9.8578 170.689 9.88165 170.291 10.0347C169.893 10.1877 169.554 10.4622 169.321 10.8193C168.465 12.1252 167.115 14.0873 166.326 14.7201C165.106 15.6975 164.916 14.9962 164.916 14.9962C164.916 14.9962 162.058 17.2857 162.058 18.8739Z" fill="#575A89"/>
<path d="M172.91 37.4438C172.91 37.4438 169.374 42.9414 171.569 43.9188C173.764 44.8961 174.983 38.1769 174.983 38.1769L172.91 37.4438Z" fill="#A0616A"/>
<path d="M166.26 6.32188C166.063 6.29703 166.001 6.04855 165.968 5.85285C165.791 4.80485 165.011 3.81107 163.964 3.64189C163.563 3.58853 163.156 3.6214 162.77 3.7383C162.216 3.89058 161.696 4.14698 161.238 4.49385C161.013 4.69922 160.754 4.86239 160.472 4.97553C160.28 5.03207 159.464 5.39553 159.273 5.45702C158.854 5.59223 158.507 6.03179 158.076 5.94476C157.663 5.8615 157.506 5.36182 157.439 4.945C157.288 3.99541 157.831 2.57853 158.37 1.78313C158.779 1.17954 159.472 0.832162 160.164 0.60617C160.976 0.359428 161.809 0.193469 162.653 0.110702C163.792 -0.0240879 164.972 -0.0956012 166.064 0.257181C167.155 0.609964 168.149 1.47295 168.353 2.60391C168.396 2.83949 168.404 3.0808 168.456 3.31445C168.583 3.88445 168.959 4.36356 169.179 4.90455C169.337 5.30186 169.411 5.72802 169.394 6.15555C169.378 6.58309 169.273 7.0025 169.085 7.38676C168.781 7.99939 168.253 8.5881 168.367 9.26267L167.426 8.51929C167.29 8.44188 167.184 8.32009 167.127 8.17424C167.07 8.0284 167.065 7.86731 167.112 7.71789L167.248 6.53743C167.296 6.32356 167.274 6.10017 167.187 5.89919C166.769 5.16722 166.587 6.3633 166.26 6.32188Z" fill="#2F2E41"/>
<path opacity="0.1" d="M175.105 29.0139L173.956 33.7992C175.115 33.8408 176.648 33.8628 178.272 33.831C178.681 32.5995 179.073 31.3155 179.373 30.1134C180.47 25.7153 178.641 18.996 177.666 15.8197C176.69 12.6433 174.252 11.7881 174.252 11.7881C173.252 12.1404 172.307 12.634 171.447 13.2541C169.862 14.3536 175.105 29.0139 175.105 29.0139Z" fill="black"/>
<path opacity="0.1" d="M174.129 28.7697L172.933 33.7517C173.226 33.7688 173.57 33.7847 173.956 33.7994C174.859 33.8311 175.988 33.8519 177.211 33.8433C177.651 32.5349 178.076 31.1544 178.397 29.8692C179.495 25.4711 177.666 18.7518 176.69 15.5754C175.715 12.3991 173.581 15.8809 173.581 15.8809C173.581 15.8809 174.434 13.804 172.849 14.9035C171.264 16.003 174.129 28.7697 174.129 28.7697Z" fill="black"/>
<path d="M173.764 11.5439C173.764 11.5439 176.202 12.3991 177.178 15.5755C178.153 18.7519 179.982 25.4712 178.885 29.8693C177.788 34.2673 175.471 39.7649 175.471 39.7649C175.471 39.7649 173.154 38.0546 172.3 38.4211L174.617 28.7697C174.617 28.7697 169.374 14.1095 170.959 13.01C171.82 12.3899 172.764 11.8962 173.764 11.5439Z" fill="#575A89"/>
<path d="M175.581 72.8227L141.846 2.38818L85.437 29.5093L106.183 72.8227H175.581Z" fill="#F2F2F2"/>
<path d="M130.43 30.035L100.469 44.4399L101.362 46.3031L131.322 31.8981L130.43 30.035Z" fill="#3F3D56"/>
<path d="M138.362 46.597L108.401 61.002L109.294 62.8651L139.254 48.4601L138.362 46.597Z" fill="#3F3D56"/>
<path d="M143.811 20.2908L136.373 23.8672L139.942 31.3199L147.381 27.7435L143.811 20.2908Z" fill="#3F3D56"/>
<path d="M151.744 36.8523L144.305 40.4287L147.875 47.8814L155.313 44.305L151.744 36.8523Z" fill="#3F3D56"/>
<path d="M144.324 15.1284L141.26 23.8612L137.131 22.4069L136.565 24.0178L142.297 26.0362L145.931 15.6946L144.324 15.1284Z" fill="#57B894"/>
<path d="M152.256 31.6899L149.193 40.4227L145.063 38.9687L144.498 40.5794L150.23 42.5977L153.864 32.2561L152.256 31.6899Z" fill="#57B894"/>
<path d="M7.2556 153.889L22.4971 150.627L19.2414 135.356L3.99989 138.618L7.2556 153.889Z" fill="#F2F2F2"/>
<path d="M22.0734 131.276C22.0734 131.276 16.4752 135.282 18.3413 136.885C20.2074 138.487 23.9395 132.077 23.9395 132.077L22.0734 131.276Z" fill="#FFB9B9"/>
<path d="M47.9318 137.419C47.9318 137.419 46.8655 150.774 46.5989 152.643C46.3323 154.513 46.0657 171.34 45.5326 173.209C44.9994 175.079 44.4662 179.62 44.4662 179.62H41.2672C41.2672 179.62 41.5338 171.34 40.7341 168.135C39.9343 164.93 40.2009 156.115 40.2009 156.115C40.2009 156.115 38.6014 140.357 39.4012 138.22C40.2009 136.084 47.9318 137.419 47.9318 137.419Z" fill="#FFB9B9"/>
<path d="M43.6662 178.818C43.6662 178.818 44.9992 179.62 44.9992 180.154C44.9992 180.688 44.7326 182.023 44.9992 182.558C45.2657 183.092 47.1318 185.229 46.0655 185.763C44.9992 186.297 40.2007 185.763 40.2007 185.763C40.2007 185.763 40.4673 182.023 40.7338 181.756C41.0004 181.489 40.4673 178.818 40.4673 178.818H43.6662Z" fill="#2F2E41"/>
<path d="M27.553 137.092C27.553 137.092 27.2143 150.485 27.2835 152.372C27.3528 154.259 25.855 171.021 26.1894 172.937C26.5237 174.852 26.5782 179.424 26.5782 179.424L29.7596 179.76C29.7596 179.76 30.3619 171.498 31.493 168.395C32.6241 165.291 33.2824 156.498 33.2824 156.498C33.2824 156.498 36.524 140.995 35.9525 138.786C35.3811 136.577 27.553 137.092 27.553 137.092Z" fill="#FFB9B9"/>
<path d="M27.4576 178.711C27.4576 178.711 26.0481 179.368 25.9921 179.899C25.9361 180.43 26.0613 181.786 25.7403 182.289C25.4192 182.793 23.3396 184.721 24.344 185.365C25.3485 186.008 30.1765 185.981 30.1765 185.981C30.1765 185.981 30.3031 182.235 30.066 181.941C29.8288 181.647 30.6389 179.047 30.6389 179.047L27.4576 178.711Z" fill="#2F2E41"/>
<path d="M44.1995 117.387C44.1995 117.387 46.3322 117.654 47.1319 122.195C47.9317 126.735 50.8641 138.22 48.4649 139.022C46.0656 139.823 38.8679 141.426 38.6013 140.891C38.3347 140.357 37.8016 139.022 37.8016 139.022C37.8016 139.022 38.6013 141.426 37.535 141.426C36.4687 141.426 26.072 139.823 26.3385 139.022C26.6051 138.22 27.1383 132.344 27.1383 132.344C27.1383 132.344 28.7378 122.462 30.3373 120.859C30.8002 120.414 31.1596 119.872 31.3899 119.272C31.6203 118.672 31.716 118.029 31.6702 117.387H44.1995Z" fill="#2F2E41"/>
<path d="M48.1985 115.25C48.1985 115.25 44.7329 114.449 44.1998 115.517C43.6666 116.586 45.5327 118.188 46.3324 118.188C47.1322 118.188 48.4651 117.387 48.4651 117.387L48.1985 115.25Z" fill="#FFB9B9"/>
<path d="M41.0006 92.5474C43.6507 92.5474 45.7991 90.395 45.7991 87.7398C45.7991 85.0846 43.6507 82.9321 41.0006 82.9321C38.3505 82.9321 36.2021 85.0846 36.2021 87.7398C36.2021 90.395 38.3505 92.5474 41.0006 92.5474Z" fill="#FFB9B9"/>
<path d="M40.201 91.2119C40.201 91.2119 39.4013 94.9512 39.9344 94.9512C40.4676 94.9512 35.9357 97.355 35.9357 97.355L32.4701 96.8208L31.4038 95.2183C31.4038 95.2183 37.002 91.479 37.002 89.3423C37.002 87.2055 40.201 91.2119 40.201 91.2119Z" fill="#FFB9B9"/>
<path d="M37.8014 94.9517C37.8014 94.9517 38.6011 94.4175 38.8677 94.4175H41.0004C41.2669 94.4175 44.7325 95.2188 44.7325 95.2188L46.8652 107.238C46.8652 107.238 43.133 113.381 45.7988 118.189C45.7988 118.189 44.9991 117.655 41.2669 117.922C37.5348 118.189 30.8702 118.99 30.6036 118.99C30.3371 118.99 30.3371 116.853 30.6036 116.319C30.8702 115.785 30.3371 116.052 30.3371 114.717C30.3371 113.381 29.5373 110.977 29.5373 110.977L25.8052 97.3555C25.8052 97.3555 30.6037 94.6846 31.4034 94.9517C32.2032 95.2187 34.6024 96.02 35.1356 95.7529C35.6687 95.4858 37.8014 94.9517 37.8014 94.9517Z" fill="#658E9C"/>
<path d="M43.9331 95.4854L44.7328 95.2184C44.7328 95.2184 46.3323 94.9513 48.1984 96.5538C50.0645 98.1564 56.9956 102.964 56.9956 102.964C56.9956 102.964 59.6615 105.101 58.8617 107.505C58.062 109.908 56.7291 115.784 52.7303 115.517C52.7303 115.517 50.3311 118.722 48.9982 118.188C47.6653 117.654 46.5989 115.517 47.3987 115.25C48.1984 114.983 50.3311 112.312 50.3311 112.312L47.6653 107.238H46.8655L43.9331 105.635L43.9331 95.4854Z" fill="#658E9C"/>
<path d="M27.9382 97.0884L25.8055 97.3555C25.8055 97.3555 23.9394 98.1567 24.206 101.629C24.4726 105.101 22.6065 120.86 23.4063 122.729C23.4063 122.729 20.7405 131.81 21.2736 132.077C21.8068 132.345 25.0058 133.947 24.7392 132.879C24.4726 131.81 27.6716 124.332 27.6716 124.332C27.6716 124.332 31.4038 120.325 29.8043 114.716V110.176L27.9382 97.0884Z" fill="#658E9C"/>
<path d="M44.994 92.3881L41.6051 93.1278L41.1696 91.4559L41.337 93.1863L35.8699 94.3796L35.6295 93.4567L35.7219 94.412L32.2202 95.1763L31.4712 87.9719C30.701 85.0156 33.5117 81.8647 36.4623 81.0931L37.7713 80.7508C39.9385 80.1842 43.8778 80.6994 44.4434 82.8707C43.4534 86.6563 41.7658 90.8065 44.994 92.3881Z" fill="#2F2E41"/>
</g>
<defs>
<filter id="filter0_d" x="0" y="0" width="255" height="194" filterUnits="userSpaceOnUse" color-interpolation-filters="sRGB">
<feFlood flood-opacity="0" result="BackgroundImageFix"/>
<feColorMatrix in="SourceAlpha" type="matrix" values="0 0 0 0 0 0 0 0 0 0 0 0 0 0 0 0 0 0 127 0"/>
<feOffset dy="4"/>
<feGaussianBlur stdDeviation="2"/>
<feColorMatrix type="matrix" values="0 0 0 0 0 0 0 0 0 0 0 0 0 0 0 0 0 0 0.25 0"/>
<feBlend mode="normal" in2="BackgroundImageFix" result="effect1_dropShadow"/>
<feBlend mode="normal" in="SourceGraphic" in2="effect1_dropShadow" result="shape"/>
</filter>
<clipPath id="clip0">
<rect width="247" height="186" fill="white" transform="translate(4)"/>
</clipPath>
</defs>
</svg>
